# xmcd
#
# Track frame offsets: 
#        150
#        21537
#        38863
#        55424
#        72930
#        89351
#        108821
#        121747
#        138151
#        151864
#        171384
#        186445
#        202017
#        217114
#        232987
#        251966
#        268097
#
# Disc length: 3799 seconds
#
# Revision: 0
# Processed by: cddbd v1.5.1PL2 Copyright (c) Steve Scherf et al.
# Submitted via: ExactAudioCopy v0.95b3
#
DISCID=fe0ed511
DTITLE=Kenny Rogers - Through The Years
DYEAR=1900
DGENRE=Country
TTITLE0=Through The Years
TTITLE1=We're Got Tonight (& Sheena Easton)
TTITLE2=Don't Fall In Love With A Dreamer (& Kim Carnes)
TTITLE3=Lady
TTITLE4=You Decorated My Life
TTITLE5=Coward Of The Country
TTITLE6=Ruby, Don't Take Your Love To Town
TTITLE7=Love Will Turn You Around
TTITLE8=What Are We Doing In Love (& Dottie Weat)
TTITLE9=Something Is Burning
TTITLE10=Till I Make It On My Own (& Dottie West)
TTITLE11=I Don't Need You
TTITLE12=Just Dropped In
TTITLE13=Share Your Love With Me
TTITLE14=She Believes In Me
TTITLE15=Lucille
TTITLE16=Desperado
EXTD=
EXTT0=
EXTT1=
EXTT2=
EXTT3=
EXTT4=
EXTT5=
EXTT6=
EXTT7=
EXTT8=
EXTT9=
EXTT10=
EXTT11=
EXTT12=
EXTT13=
EXTT14=
EXTT15=
EXTT16=
PLAYORDER=
